# xmcd CD database file
#
# Track frame offsets:
#	150
#	64569
#	124342
#	177831
#	231011
#	268107
#
# Disc length: 4209 seconds
#
# Revision: 0
# Processed by: cddbd v1.5.1PL0 Copyright (c) Steve Scherf et al.
# Submitted via: CDex 1.51
#
DISCID=4e106f06
DTITLE=Krishna prema - Deep Love
DYEAR=2000
DGENRE=New Age
TTITLE0=Love song
TTITLE1=Krsna song
TTITLE2=Don't forget
TTITLE3=Peacfull mind
TTITLE4=Flying high
TTITLE5=Celebrations
EXTD=YEAR: 2000
EXTT0=
EXTT1=
EXTT2=
EXTT3=
EXTT4=
EXTT5=
PLAYORDER=
